<svg id="Warstwa_1" data-name="Warstwa 1" xmlns="http://www.w3.org/2000/svg" viewBox="0 0 200 189.44"><defs><style>.cls-1{fill:#e6e6e6;}</style></defs><path class="cls-1" d="M154.11,163.92H139.3V142.27h3.91a20,20,0,0,0,20-20V77.48h3.28a3.12,3.12,0,0,0,3.12-3.13V56.58l8.28,6.9a1.83,1.83,0,0,0,1.16.41,1.74,1.74,0,0,0,1.37-.66,1.77,1.77,0,0,0-.22-2.51l0,0-10.4-8.78V39.86l27.56-16.3a5.44,5.44,0,0,0-5.5-9.38h0l-29,17.19h-9.78a3.58,3.58,0,0,0-3.59,3.56V74.2a3.27,3.27,0,0,0,3.12,3.12v45a9.38,9.38,0,0,1-9.37,9.37H139.3V9.15A9.15,9.15,0,0,0,130.15,0H23.93a9.17,9.17,0,0,0-9.18,9.15V163.92H0v25.52H154.11ZM114.5,84.2h-75V30h75Z"/></svg>