<svg id="Warstwa_1" data-name="Warstwa 1" xmlns="http://www.w3.org/2000/svg" viewBox="0 0 200 160"><defs><style>.cls-1{fill:#e6e6e6;}</style></defs><path class="cls-1" d="M180,50H160a10,10,0,0,0-10,10V70h-3.82L131.71,41.06A19.89,19.89,0,0,0,113.82,30H110V20h10a10,10,0,0,0,0-20H80a10,10,0,0,0,0,20H90V30H80a10,10,0,0,0-7.07,2.93L55.86,50H40A10,10,0,0,0,30,60V80H20V60A10,10,0,0,0,0,60v60a10,10,0,0,0,20,0V100H30v20a10,10,0,0,0,10,10H54.65l14.06,21.1A20,20,0,0,0,85.35,160H120a20,20,0,0,0,20-20V130h10v10a10,10,0,0,0,10,10h20a20,20,0,0,0,20-20V70A20,20,0,0,0,180,50Z"/></svg>