<svg id="Warstwa_1" data-name="Warstwa 1" xmlns="http://www.w3.org/2000/svg" viewBox="0 0 200 198.48"><defs><style>.cls-1{fill:#e6e6e6;}</style></defs><path class="cls-1" d="M85.79,99.25a15.66,15.66,0,0,0,29.63,7.14l0,0,28.68-51.74L93.8,85.56l0,0A15.66,15.66,0,0,0,85.79,99.25Z"/><path class="cls-1" d="M164.79,24.39A99.88,99.88,0,0,0,104.13,0V23.87c19.8,1.26,31.47,7.55,43.19,17.37Z"/><path class="cls-1" d="M176,91.8h23.85C198.25,68,189,48.51,174.52,32.51L157.65,49.28A76.15,76.15,0,0,1,176,91.8Z"/><path class="cls-1" d="M176.11,103.69c-2.52,39.61-35.34,71-75.42,71-41.73,0-76.92-33.84-76.92-75.57,0-39.72,32.83-72.21,68.47-75.26V0C40.75,3.09,0,46.41,0,99.25c0,54.83,45.23,99.23,100.06,99.23,53.21,0,97.4-43.3,99.94-94.79Z"/></svg>